<?xml version="1.0" encoding="UTF-8"?>
<svg id="Capa_1" data-name="Capa 1" xmlns="http://www.w3.org/2000/svg" xmlns:xlink="http://www.w3.org/1999/xlink" viewBox="0 0 500 500">
  <defs>
    <style>
      .cls-1 {
        fill: url(#Degradado_sin_nombre_105-4);
      }

      .cls-2 {
        fill: url(#Degradado_sin_nombre_105-9);
      }

      .cls-3 {
        fill: url(#Degradado_sin_nombre_105-10);
      }

      .cls-4 {
        fill: url(#Degradado_sin_nombre_105);
      }

      .cls-5 {
        fill: url(#Degradado_sin_nombre_105-2);
      }

      .cls-6 {
        fill: url(#Degradado_sin_nombre_105-5);
      }

      .cls-7 {
        fill: url(#Degradado_sin_nombre_105-7);
      }

      .cls-8 {
        fill: url(#Degradado_sin_nombre_105-3);
      }

      .cls-9 {
        fill: url(#Degradado_sin_nombre_105-6);
      }

      .cls-10 {
        fill: url(#Degradado_sin_nombre_105-8);
      }
    </style>
    <linearGradient id="Degradado_sin_nombre_105" data-name="Degradado sin nombre 105" x1="2403.58" y1="1061.22" x2="2491.92" y2="1061.22" gradientTransform="translate(2756.46 1164.26) rotate(-133.33) scale(1 -1)" gradientUnits="userSpaceOnUse">
      <stop offset="0" stop-color="#9bb1ff"/>
      <stop offset="1" stop-color="#0f084b"/>
    </linearGradient>
    <linearGradient id="Degradado_sin_nombre_105-2" data-name="Degradado sin nombre 105" x1="2248.35" y1="745.85" x2="2349.03" y2="745.85" gradientTransform="translate(2545.68 835.03) rotate(-143.68) scale(1 -1)" xlink:href="#Degradado_sin_nombre_105"/>
    <linearGradient id="Degradado_sin_nombre_105-3" data-name="Degradado sin nombre 105" x1="175.56" y1="241.6" x2="175.56" y2="83.26" gradientTransform="matrix(1,0,0,1,0,0)" xlink:href="#Degradado_sin_nombre_105"/>
    <linearGradient id="Degradado_sin_nombre_105-4" data-name="Degradado sin nombre 105" x1="-122.91" y1="277.51" x2="-122.91" y2="118.4" gradientTransform="translate(194.76) rotate(-180) scale(1 -1)" xlink:href="#Degradado_sin_nombre_105"/>
    <linearGradient id="Degradado_sin_nombre_105-5" data-name="Degradado sin nombre 105" x1="-106.32" y1="323.93" x2="-106.32" y2="167.61" gradientTransform="translate(194.76) rotate(-180) scale(1 -1)" xlink:href="#Degradado_sin_nombre_105"/>
    <linearGradient id="Degradado_sin_nombre_105-6" data-name="Degradado sin nombre 105" x1="155.08" y1="400.44" x2="155.08" y2="166" gradientTransform="matrix(1,0,0,1,0,0)" xlink:href="#Degradado_sin_nombre_105"/>
    <linearGradient id="Degradado_sin_nombre_105-7" data-name="Degradado sin nombre 105" x1="156.94" y1="489.52" x2="156.94" y2="261.11" gradientTransform="matrix(1,0,0,1,0,0)" xlink:href="#Degradado_sin_nombre_105"/>
    <linearGradient id="Degradado_sin_nombre_105-8" data-name="Degradado sin nombre 105" x1="-141.37" y1="413.44" x2="-141.37" y2="248.78" gradientTransform="translate(194.76) rotate(-180) scale(1 -1)" xlink:href="#Degradado_sin_nombre_105"/>
    <linearGradient id="Degradado_sin_nombre_105-9" data-name="Degradado sin nombre 105" x1="257.92" y1="493.48" x2="257.92" y2="368.9" gradientTransform="matrix(1,0,0,1,0,0)" xlink:href="#Degradado_sin_nombre_105"/>
    <linearGradient id="Degradado_sin_nombre_105-10" data-name="Degradado sin nombre 105" x1="332.13" y1="429.96" x2="263.81" y2="429.96" gradientTransform="matrix(1,0,0,1,0,0)" xlink:href="#Degradado_sin_nombre_105"/>
  </defs>
  <path class="cls-4" d="M309.07,47.2c6.16,6.36,13.13,14.92,19.23,25.95,13.93,25.22,15.59,49.49,15.44,62.78-5.31-5.45-22.18-21.38-49.46-25.52-23.6-3.57-42.01,3.65-49.25,6.95,0,0,45.95-24.17,64.04-70.17Z"/>
  <path class="cls-5" d="M239.28,6.52s45.08,26.42,53.39,97.36c0,0-62.02-19.94-103.79-16.82,0,0,40.86-32.03,50.39-80.54Z"/>
  <path class="cls-8" d="M25.86,241.6c1.65-9.04,19.68-99.07,106.38-140.17,61.97-29.38,135.76-22.73,193.02,17.06-5.32.23-12.52.81-20.93,2.26-4.01.69-22.13,3.96-44.61,14.31-12.6,5.8-30.3,15.53-48.81,31.64-11.29.84-25.98,2.7-42.76,6.95-9.09,2.3-25.59,6.58-45.28,16.3-12.51,6.17-29.74,16.24-47.68,32.34-6.75,1.84-13.98,4.12-49.33,19.31Z"/>
  <path class="cls-1" d="M424.56,277.51c-.26-18.66-3.48-50.5-21.85-83.3-16.68-29.79-39.01-47.91-51.6-57.96-10.15-8.1-19.28-13.87-25.98-17.85-6.72.31-13.79,1.02-21.14,2.28-42.53,7.26-73.92,29.12-93.18,46.04,2.17-.14,5.13-.3,8.65-.41,4.56-.15,11.43-.35,20.12.11,4.23.22,11.16.75,19.45,1.97,12.69,1.87,21.91,4.59,31.57,7.42,7.64,2.24,17.99,5.31,31.15,10.71,11.13,4.57,24.62,10.19,40.45,20.77,13.9,9.29,22.96,17.96,25.37,20.3,1.72,1.67,9.26,9.09,17.62,20.01,6.57,8.6,11.28,16.27,14.26,21.16,2.15,3.54,3.89,6.55,5.12,8.75Z"/>
  <path class="cls-6" d="M256.16,167.61s-82.5,41.91-106.55,124.97c0,0,151.86-111.47,302.95,31.35-8.18-19.81-29.43-66.21-67.82-99.91-15.83-13.9-32.11-23.49-33.07-24.05-20.31-11.85-37.97-17.4-54.19-22.39-10.78-3.32-24.72-7.02-41.31-9.96Z"/>
  <path class="cls-9" d="M75.19,222.29s-43.97,81.18-7.89,178.15c0,0,27.34-69.62,82.87-106.83,0,0,11.64-70.34,106.91-125.88,0,0-102.97-16.85-181.89,54.56Z"/>
  <path class="cls-7" d="M217.24,261.11c-3.5,7.18-6.87,16.07-10.46,28.3-6.48,22.11-7.85,38.49-8.27,50.74-.58,17.12.04,43.95,6.91,73.05-3.51,6.05-7.14,13.68-9.83,22.83-6.63,22.62-3.93,42.39-1.45,53.49,0,0-68.19-33.52-97.51-141.76,7.19-11.13,16.82-23.69,29.65-36.01,32.94-31.64,69.34-44.84,90.95-50.64Z"/>
  <path class="cls-10" d="M450.27,321.26l23.87,28c-15,32.87-31.3,48.5-48.62,54.04-53.52,17.13-102.03-49.58-163.37-33.78-27.82,7.16-46.26,28.56-56.87,43.92-.96-3.89-2.17-9.2-3.29-15.55-1.29-7.31-3.19-20.06-3.61-37.31-.48-19.97-1.1-44.06,7.93-72.67,3.63-11.49,7.8-20.62,10.93-26.8,18.51-6.58,43.29-12.63,72.54-12.31,86.16.93,144.65,56.38,160.49,72.46Z"/>
  <path class="cls-2" d="M191.84,456.33s39.7,42.59,132.16,36.57c.04.02-.22-.15-.75-.49-24.87-16.14-40.55-42.29-40.55-42.29-20.67-32.93-18.67-72.03-17.88-81.23-1.79.35-4.3.91-7.23,1.81-11.44,3.49-19.12,8.94-23.75,12.29-6.35,4.58-19.07,14.05-29.22,31.48-9.92,17.03-12.19,33.1-12.78,41.86Z"/>
  <path class="cls-3" d="M332.13,380.09s-47.21,51.18-8.12,112.82c-10.34-6.72-36.23-25.54-50.64-60.89-10.32-26.57-10.55-50.43-8.58-63.11,1.09-.24,2.79-.59,4.58-.88,2.52-.41,7.42-1.09,13.52-1.01,1.96.02,7.42.16,15.26,1.69,14.24,2.77,27.47,8.4,34,11.38Z"/>
</svg>