<?xml version="1.0" encoding="UTF-8"?>
<svg id="Capa_1" data-name="Capa 1" xmlns="http://www.w3.org/2000/svg" xmlns:xlink="http://www.w3.org/1999/xlink" viewBox="0 0 937.29 250">
  <defs>
    <style>
      .cls-1 {
        fill: #17bebb;
      }

      .cls-2 {
        fill: url(#Degradado_sin_nombre_105-4);
      }

      .cls-3 {
        fill: url(#Degradado_sin_nombre_105-9);
      }

      .cls-4 {
        fill: url(#Degradado_sin_nombre_105-10);
      }

      .cls-5 {
        fill: url(#Degradado_sin_nombre_105);
      }

      .cls-6 {
        fill: url(#Degradado_sin_nombre_105-2);
      }

      .cls-7 {
        fill: url(#Degradado_sin_nombre_105-5);
      }

      .cls-8 {
        fill: url(#Degradado_sin_nombre_105-7);
      }

      .cls-9 {
        fill: url(#Degradado_sin_nombre_105-3);
      }

      .cls-10 {
        fill: #0f084b;
      }

      .cls-11 {
        fill: url(#Degradado_sin_nombre_105-6);
      }

      .cls-12 {
        fill: url(#Degradado_sin_nombre_105-8);
      }
    </style>
    <linearGradient id="Degradado_sin_nombre_105" data-name="Degradado sin nombre 105" x1="1592.58" y1="710.86" x2="1637.08" y2="710.86" gradientTransform="translate(1778.49 742.34) rotate(-133.33) scale(1 -1)" gradientUnits="userSpaceOnUse">
      <stop offset="0" stop-color="#9bb1ff"/>
      <stop offset="1" stop-color="#0f084b"/>
    </linearGradient>
    <linearGradient id="Degradado_sin_nombre_105-2" data-name="Degradado sin nombre 105" x1="1349.35" y1="445.97" x2="1400.07" y2="445.97" gradientTransform="translate(1498.37 491.49) rotate(-143.68) scale(1 -1)" xlink:href="#Degradado_sin_nombre_105"/>
    <linearGradient id="Degradado_sin_nombre_105-3" data-name="Degradado sin nombre 105" x1="88.18" y1="120.77" x2="88.18" y2="41.01" gradientTransform="matrix(1,0,0,1,0,0)" xlink:href="#Degradado_sin_nombre_105"/>
    <linearGradient id="Degradado_sin_nombre_105-4" data-name="Degradado sin nombre 105" x1="-1125" y1="138.86" x2="-1125" y2="58.71" gradientTransform="translate(-965.24) rotate(-180) scale(1 -1)" xlink:href="#Degradado_sin_nombre_105"/>
    <linearGradient id="Degradado_sin_nombre_105-5" data-name="Degradado sin nombre 105" x1="-1116.64" y1="162.24" x2="-1116.64" y2="83.5" gradientTransform="translate(-965.24) rotate(-180) scale(1 -1)" xlink:href="#Degradado_sin_nombre_105"/>
    <linearGradient id="Degradado_sin_nombre_105-6" data-name="Degradado sin nombre 105" x1="77.86" y1="200.78" x2="77.86" y2="82.69" gradientTransform="matrix(1,0,0,1,0,0)" xlink:href="#Degradado_sin_nombre_105"/>
    <linearGradient id="Degradado_sin_nombre_105-7" data-name="Degradado sin nombre 105" x1="78.8" y1="245.65" x2="78.8" y2="130.6" gradientTransform="matrix(1,0,0,1,0,0)" xlink:href="#Degradado_sin_nombre_105"/>
    <linearGradient id="Degradado_sin_nombre_105-8" data-name="Degradado sin nombre 105" x1="-1134.3" y1="207.32" x2="-1134.3" y2="124.39" gradientTransform="translate(-965.24) rotate(-180) scale(1 -1)" xlink:href="#Degradado_sin_nombre_105"/>
    <linearGradient id="Degradado_sin_nombre_105-9" data-name="Degradado sin nombre 105" x1="129.66" y1="247.65" x2="129.66" y2="184.89" gradientTransform="matrix(1,0,0,1,0,0)" xlink:href="#Degradado_sin_nombre_105"/>
    <linearGradient id="Degradado_sin_nombre_105-10" data-name="Degradado sin nombre 105" x1="167.04" y1="215.65" x2="132.63" y2="215.65" gradientTransform="matrix(1,0,0,1,0,0)" xlink:href="#Degradado_sin_nombre_105"/>
  </defs>
  <g>
    <path class="cls-5" d="M155.43,22.85c3.1,3.21,6.61,7.52,9.69,13.07,7.02,12.7,7.85,24.93,7.78,31.62-2.67-2.75-11.17-10.77-24.92-12.85-11.89-1.8-21.16,1.84-24.81,3.5,0,0,23.15-12.18,32.26-35.35Z"/>
    <path class="cls-6" d="M120.27,2.35s22.71,13.31,26.89,49.04c0,0-31.24-10.04-52.28-8.47,0,0,20.58-16.14,25.38-40.57Z"/>
    <path class="cls-9" d="M12.77,120.77c.83-4.55,9.91-49.9,53.58-70.61,31.22-14.8,68.38-11.45,97.23,8.59-2.68.12-6.31.41-10.54,1.14-2.02.35-11.15,2-22.47,7.21-6.35,2.92-15.26,7.82-24.59,15.94-5.68.42-13.09,1.36-21.54,3.5-4.58,1.16-12.89,3.32-22.81,8.21-6.3,3.11-14.98,8.18-24.02,16.29-3.4.93-7.04,2.08-24.85,9.73Z"/>
    <path class="cls-2" d="M213.6,138.86c-.13-9.4-1.75-25.44-11.01-41.96-8.4-15.01-19.65-24.13-25.99-29.2-5.11-4.08-9.71-6.99-13.09-8.99-3.39.16-6.95.52-10.65,1.15-21.42,3.66-37.24,14.67-46.94,23.19,1.09-.07,2.58-.15,4.36-.21,2.3-.07,5.76-.18,10.13.05,2.13.11,5.62.38,9.8.99,6.39.94,11.03,2.31,15.9,3.74,3.85,1.13,9.06,2.67,15.69,5.4,5.61,2.3,12.4,5.13,20.38,10.46,7,4.68,11.57,9.04,12.78,10.22.87.84,4.67,4.58,8.87,10.08,3.31,4.33,5.68,8.2,7.18,10.66,1.09,1.78,1.96,3.3,2.58,4.41Z"/>
    <path class="cls-7" d="M128.78,83.5s-41.56,21.11-53.67,62.95c0,0,76.49-56.15,152.6,15.79-4.12-9.98-14.82-33.35-34.16-50.33-7.98-7-16.17-11.83-16.66-12.12-10.23-5.97-19.12-8.76-27.3-11.28-5.43-1.67-12.45-3.54-20.81-5.02Z"/>
    <path class="cls-11" d="M37.62,111.04s-22.15,40.89-3.98,89.74c0,0,13.77-35.07,41.74-53.81,0,0,5.86-35.43,53.85-63.41,0,0-51.87-8.49-91.62,27.48Z"/>
    <path class="cls-8" d="M109.17,130.6c-1.76,3.62-3.46,8.09-5.27,14.25-3.26,11.14-3.96,19.39-4.16,25.56-.29,8.62.02,22.14,3.48,36.8-1.77,3.05-3.6,6.89-4.95,11.5-3.34,11.39-1.98,21.35-.73,26.94,0,0-34.35-16.88-49.12-71.41,3.62-5.61,8.47-11.93,14.93-18.14,16.59-15.94,34.93-22.59,45.81-25.51Z"/>
    <path class="cls-12" d="M226.55,160.89l12.02,14.1c-7.56,16.56-15.77,24.43-24.49,27.22-26.96,8.63-51.39-24.97-82.29-17.02-14.01,3.61-23.3,14.38-28.65,22.12-.48-1.96-1.09-4.63-1.66-7.83-.65-3.68-1.61-10.1-1.82-18.8-.24-10.06-.56-22.19,4-36.6,1.83-5.79,3.93-10.39,5.5-13.5,9.32-3.31,21.8-6.36,36.54-6.2,43.4.47,72.86,28.4,80.84,36.5Z"/>
    <path class="cls-3" d="M96.38,228.93s20,21.45,66.57,18.42c.02,0-.11-.07-.38-.25-12.53-8.13-20.43-21.3-20.43-21.3-10.41-16.59-9.4-36.28-9-40.92-.9.18-2.16.46-3.64.91-5.77,1.76-9.63,4.5-11.96,6.19-3.2,2.31-9.61,7.08-14.72,15.86-4.99,8.58-6.14,16.67-6.44,21.09Z"/>
    <path class="cls-4" d="M167.04,190.53s-23.78,25.78-4.09,56.83c-5.21-3.39-18.25-12.87-25.51-30.67-5.2-13.38-5.32-25.4-4.32-31.79.55-.12,1.4-.3,2.31-.44,1.27-.21,3.74-.55,6.81-.51.99.01,3.74.08,7.68.85,7.17,1.4,13.84,4.23,17.12,5.73Z"/>
  </g>
  <g>
    <g>
      <path class="cls-10" d="M322.86,58.27v16.41h-29.66v13.04h21.88v15.67h-21.88v29.03h-20.62V58.27h50.28Z"/>
      <path class="cls-10" d="M357.47,74.78v12.1h23.67v15.67h-23.67v13.36h26.82v16.51h-47.44V58.27h47.44v16.51h-26.82Z"/>
      <path class="cls-10" d="M437.3,132.43l-14.73-27.35h-2.21v27.35h-20.62V58.27h32.5c5.96,0,11.01,1.04,15.15,3.1,4.14,2.07,7.26,4.91,9.36,8.52,2.1,3.61,3.16,7.66,3.16,12.15,0,5.05-1.39,9.48-4.16,13.31-2.77,3.82-6.82,6.54-12.15,8.15l16.72,28.93h-23.03ZM420.37,90.98h10.2c2.8,0,4.91-.67,6.31-2,1.4-1.33,2.1-3.26,2.1-5.79,0-2.38-.72-4.26-2.16-5.63-1.44-1.37-3.52-2.05-6.26-2.05h-10.2v15.46Z"/>
      <path class="cls-10" d="M521.45,120.33h-26.3l-4,12.1h-21.67l27.03-74.16h23.77l26.93,74.16h-21.77l-4-12.1ZM516.3,104.55l-7.99-23.98-7.89,23.98h15.88Z"/>
      <path class="cls-10" d="M579.83,116.65h23.03v15.78h-43.65V58.27h20.62v58.38Z"/>
      <path class="cls-10" d="M697.32,58.27v16.41h-19.77v57.75h-20.62v-57.75h-19.56v-16.41h59.96Z"/>
      <path class="cls-10" d="M730.87,74.78v12.1h23.67v15.67h-23.67v13.36h26.82v16.51h-47.44V58.27h47.44v16.51h-26.82Z"/>
      <path class="cls-10" d="M775.21,75.68c3.05-5.71,7.38-10.17,12.99-13.36,5.61-3.19,12.06-4.79,19.35-4.79,9.26,0,17.04,2.47,23.35,7.42,6.31,4.94,10.38,11.66,12.2,20.14h-22.19c-1.33-2.8-3.17-4.94-5.52-6.42s-5.07-2.21-8.15-2.21c-4.77,0-8.57,1.7-11.41,5.1-2.84,3.4-4.26,7.94-4.26,13.62s1.42,10.33,4.26,13.73c2.84,3.4,6.64,5.1,11.41,5.1,3.08,0,5.8-.74,8.15-2.21s4.19-3.61,5.52-6.42h22.19c-1.82,8.48-5.89,15.2-12.2,20.14-6.31,4.94-14.1,7.42-23.35,7.42-7.29,0-13.74-1.59-19.35-4.79-5.61-3.19-9.94-7.64-12.99-13.36-3.05-5.71-4.58-12.25-4.58-19.62s1.53-13.8,4.58-19.51Z"/>
      <path class="cls-10" d="M924.52,58.27v74.16h-20.62v-29.77h-25.14v29.77h-20.62V58.27h20.62v27.87h25.14v-27.87h20.62Z"/>
    </g>
    <g>
      <path class="cls-1" d="M324.52,167.81v24.41h-3.19v-24.41h3.19Z"/>
      <path class="cls-1" d="M356.1,167.99v24.23h-3.19v-18.07l-8.05,18.07h-2.24l-8.09-18.1v18.1h-3.19v-24.23h3.43l8.96,20.03,8.96-20.03h3.4Z"/>
      <path class="cls-1" d="M377.32,186.8h-10.65l-1.96,5.43h-3.36l8.82-24.27h3.68l8.79,24.27h-3.36l-1.96-5.43ZM376.41,184.2l-4.41-12.33-4.41,12.33h8.82Z"/>
      <path class="cls-1" d="M406.38,174.89c-.68-1.42-1.66-2.53-2.94-3.31-1.28-.78-2.78-1.17-4.48-1.17s-3.24.39-4.6,1.17c-1.37.78-2.44,1.9-3.22,3.36-.78,1.46-1.17,3.15-1.17,5.06s.39,3.6,1.17,5.04c.78,1.45,1.86,2.56,3.22,3.34,1.36.78,2.9,1.17,4.6,1.17,2.38,0,4.34-.71,5.88-2.14,1.54-1.42,2.44-3.35,2.7-5.78h-9.73v-2.59h13.13v2.45c-.19,2.01-.82,3.85-1.89,5.52s-2.49,2.99-4.24,3.96c-1.75.97-3.7,1.45-5.85,1.45-2.27,0-4.33-.53-6.2-1.59-1.87-1.06-3.34-2.54-4.43-4.43-1.09-1.89-1.63-4.03-1.63-6.41s.54-4.52,1.63-6.43c1.09-1.9,2.56-3.38,4.43-4.45,1.87-1.06,3.93-1.59,6.2-1.59,2.59,0,4.88.64,6.88,1.93s3.45,3.09,4.36,5.43h-3.82Z"/>
      <path class="cls-1" d="M419.73,167.81v24.41h-3.19v-24.41h3.19Z"/>
      <path class="cls-1" d="M445.74,192.22h-3.19l-12.81-19.43v19.43h-3.19v-24.44h3.19l12.81,19.4v-19.4h3.19v24.44Z"/>
      <path class="cls-1" d="M467,186.8h-10.65l-1.96,5.43h-3.36l8.82-24.27h3.68l8.79,24.27h-3.36l-1.96-5.43ZM466.09,184.2l-4.41-12.33-4.41,12.33h8.82Z"/>
      <path class="cls-1" d="M489.77,183.59c-.83-.83-1.24-1.84-1.24-3.03s.41-2.23,1.24-3.06c.83-.83,1.84-1.24,3.03-1.24s2.24.42,3.08,1.24c.84.83,1.26,1.85,1.26,3.06s-.42,2.2-1.26,3.03c-.84.83-1.87,1.24-3.08,1.24s-2.2-.42-3.03-1.24Z"/>
      <path class="cls-1" d="M515.32,173.58c1.07-1.9,2.54-3.39,4.39-4.46,1.86-1.07,3.92-1.61,6.18-1.61,2.66,0,4.98.64,6.97,1.93,1.99,1.28,3.43,3.1,4.34,5.46h-3.82c-.68-1.47-1.65-2.6-2.92-3.4s-2.8-1.19-4.57-1.19-3.23.4-4.59,1.19c-1.35.79-2.42,1.92-3.19,3.38-.77,1.46-1.16,3.17-1.16,5.13s.39,3.64,1.16,5.1c.77,1.46,1.83,2.59,3.19,3.38,1.35.79,2.88,1.19,4.59,1.19s3.3-.39,4.57-1.17,2.25-1.91,2.92-3.38h3.82c-.91,2.33-2.36,4.14-4.34,5.41-1.98,1.27-4.31,1.91-6.97,1.91-2.27,0-4.33-.53-6.18-1.59s-3.32-2.54-4.39-4.43c-1.07-1.89-1.61-4.03-1.61-6.41s.54-4.52,1.61-6.43Z"/>
      <path class="cls-1" d="M556.18,192.22l-5.81-9.98h-3.85v9.98h-3.19v-24.41h7.88c1.84,0,3.4.32,4.67.95,1.27.63,2.22,1.48,2.85,2.56.63,1.08.95,2.3.95,3.68,0,1.68-.48,3.16-1.45,4.45s-2.42,2.14-4.36,2.56l6.13,10.22h-3.82ZM546.52,179.69h4.69c1.73,0,3.02-.43,3.89-1.28.86-.85,1.3-1.99,1.3-3.41s-.43-2.57-1.28-3.36c-.85-.79-2.15-1.19-3.9-1.19h-4.69v9.24Z"/>
      <path class="cls-1" d="M569.21,170.41v8.16h8.89v2.63h-8.89v8.4h9.94v2.63h-13.13v-24.44h13.13v2.63h-9.94Z"/>
      <path class="cls-1" d="M599.81,186.8h-10.65l-1.96,5.43h-3.36l8.82-24.27h3.68l8.79,24.27h-3.36l-1.96-5.43ZM598.9,184.2l-4.41-12.33-4.41,12.33h8.82Z"/>
      <path class="cls-1" d="M622.59,183.59c-.83-.83-1.24-1.84-1.24-3.03s.41-2.23,1.24-3.06,1.84-1.24,3.03-1.24,2.24.42,3.08,1.24c.84.83,1.26,1.85,1.26,3.06s-.42,2.2-1.26,3.03c-.84.83-1.87,1.24-3.08,1.24s-2.2-.42-3.03-1.24Z"/>
      <path class="cls-1" d="M650.9,170.41v8.16h8.89v2.63h-8.89v8.4h9.94v2.63h-13.13v-24.44h13.13v2.63h-9.94Z"/>
      <path class="cls-1" d="M687.25,167.81l-9.21,24.41h-3.68l-9.21-24.41h3.4l7.67,21.05,7.67-21.05h3.36Z"/>
      <path class="cls-1" d="M697.02,190.87c-1.87-1.06-3.34-2.54-4.43-4.45s-1.63-4.05-1.63-6.43.54-4.52,1.63-6.43c1.09-1.9,2.56-3.38,4.43-4.45,1.87-1.06,3.93-1.59,6.2-1.59s4.37.53,6.23,1.59c1.87,1.06,3.34,2.54,4.41,4.43,1.07,1.89,1.61,4.04,1.61,6.44s-.54,4.55-1.61,6.44c-1.08,1.89-2.55,3.37-4.41,4.43-1.87,1.06-3.94,1.59-6.23,1.59s-4.33-.53-6.2-1.59ZM707.82,188.51c1.36-.79,2.44-1.93,3.22-3.4.78-1.47,1.17-3.18,1.17-5.11s-.39-3.67-1.17-5.13c-.78-1.46-1.85-2.59-3.2-3.38-1.35-.79-2.89-1.19-4.62-1.19s-3.27.4-4.62,1.19-2.42,1.92-3.2,3.38c-.78,1.46-1.17,3.17-1.17,5.13s.39,3.64,1.17,5.11c.78,1.47,1.86,2.6,3.22,3.4,1.36.79,2.9,1.19,4.6,1.19s3.24-.4,4.6-1.19Z"/>
      <path class="cls-1" d="M724.26,189.63h8.54v2.59h-11.73v-24.41h3.19v21.82Z"/>
      <path class="cls-1" d="M740.72,167.81v15.44c0,2.17.53,3.78,1.59,4.83,1.06,1.05,2.54,1.58,4.43,1.58s3.33-.52,4.39-1.58c1.06-1.05,1.59-2.66,1.59-4.83v-15.44h3.19v15.41c0,2.03-.41,3.74-1.23,5.13s-1.92,2.42-3.31,3.1c-1.39.68-2.95,1.02-4.67,1.02s-3.29-.34-4.67-1.02c-1.39-.68-2.49-1.71-3.29-3.1-.81-1.39-1.21-3.1-1.21-5.13v-15.41h3.19Z"/>
      <path class="cls-1" d="M763.06,173.58c1.07-1.9,2.54-3.39,4.39-4.46,1.86-1.07,3.92-1.61,6.18-1.61,2.66,0,4.98.64,6.97,1.93,1.99,1.28,3.43,3.1,4.34,5.46h-3.82c-.68-1.47-1.65-2.6-2.92-3.4s-2.8-1.19-4.57-1.19-3.23.4-4.59,1.19c-1.35.79-2.42,1.92-3.19,3.38-.77,1.46-1.16,3.17-1.16,5.13s.39,3.64,1.16,5.1c.77,1.46,1.83,2.59,3.19,3.38,1.35.79,2.88,1.19,4.59,1.19s3.3-.39,4.57-1.17,2.25-1.91,2.92-3.38h3.82c-.91,2.33-2.36,4.14-4.34,5.41-1.98,1.27-4.31,1.91-6.97,1.91-2.27,0-4.33-.53-6.18-1.59-1.86-1.06-3.32-2.54-4.39-4.43-1.07-1.89-1.61-4.03-1.61-6.41s.54-4.52,1.61-6.43Z"/>
      <path class="cls-1" d="M794.25,167.81v24.41h-3.19v-24.41h3.19Z"/>
      <path class="cls-1" d="M805.95,190.87c-1.87-1.06-3.34-2.54-4.43-4.45s-1.63-4.05-1.63-6.43.54-4.52,1.63-6.43c1.09-1.9,2.56-3.38,4.43-4.45,1.87-1.06,3.93-1.59,6.2-1.59s4.37.53,6.23,1.59c1.87,1.06,3.34,2.54,4.41,4.43,1.07,1.89,1.61,4.04,1.61,6.44s-.54,4.55-1.61,6.44c-1.08,1.89-2.55,3.37-4.41,4.43-1.87,1.06-3.94,1.59-6.23,1.59s-4.33-.53-6.2-1.59ZM816.75,188.51c1.36-.79,2.44-1.93,3.22-3.4.78-1.47,1.17-3.18,1.17-5.11s-.39-3.67-1.17-5.13c-.78-1.46-1.85-2.59-3.2-3.38s-2.89-1.19-4.62-1.19-3.27.4-4.62,1.19-2.42,1.92-3.2,3.38c-.78,1.46-1.17,3.17-1.17,5.13s.39,3.64,1.17,5.11c.78,1.47,1.86,2.6,3.22,3.4,1.36.79,2.9,1.19,4.6,1.19s3.24-.4,4.6-1.19Z"/>
      <path class="cls-1" d="M849.2,192.22h-3.19l-12.81-19.43v19.43h-3.19v-24.44h3.19l12.81,19.4v-19.4h3.19v24.44Z"/>
      <path class="cls-1" d="M870.45,186.8h-10.65l-1.96,5.43h-3.36l8.82-24.27h3.68l8.79,24.27h-3.36l-1.96-5.43ZM869.54,184.2l-4.41-12.33-4.41,12.33h8.82Z"/>
    </g>
  </g>
</svg>