<?xml version="1.0" encoding="UTF-8"?>
<svg id="Capa_1" data-name="Capa 1" xmlns="http://www.w3.org/2000/svg" xmlns:xlink="http://www.w3.org/1999/xlink" viewBox="0 0 500 500">
  <defs>
    <style>
      .cls-1 {
        fill: url(#Degradado_sin_nombre_90-6);
      }

      .cls-2 {
        fill: url(#Degradado_sin_nombre_90-4);
      }

      .cls-3 {
        fill: url(#Degradado_sin_nombre_90-3);
      }

      .cls-4 {
        fill: url(#Degradado_sin_nombre_90);
      }

      .cls-5 {
        fill: url(#Degradado_sin_nombre_90-2);
      }

      .cls-6 {
        fill: url(#Degradado_sin_nombre_90-7);
      }

      .cls-7 {
        fill: #126899;
      }

      .cls-8 {
        fill: url(#Degradado_sin_nombre_90-8);
      }

      .cls-9 {
        fill: url(#Degradado_sin_nombre_90-9);
      }

      .cls-10 {
        fill: url(#Degradado_sin_nombre_90-5);
      }

      .cls-11 {
        fill: url(#Degradado_sin_nombre_90-10);
      }

      .cls-12 {
        fill: #0f084b;
      }
    </style>
    <linearGradient id="Degradado_sin_nombre_90" data-name="Degradado sin nombre 90" x1="3006.72" y1="1290.2" x2="3069.81" y2="1290.2" gradientTransform="translate(3312.52 1404.16) rotate(-133.33) scale(1 -1)" gradientUnits="userSpaceOnUse">
      <stop offset="0" stop-color="#9bb1ff"/>
      <stop offset="1" stop-color="#126899"/>
    </linearGradient>
    <linearGradient id="Degradado_sin_nombre_90-2" data-name="Degradado sin nombre 90" x1="2979.89" y1="959.39" x2="3051.79" y2="959.39" gradientTransform="translate(3249.46 1065.88) rotate(-143.68) scale(1 -1)" xlink:href="#Degradado_sin_nombre_90"/>
    <linearGradient id="Degradado_sin_nombre_90-3" data-name="Degradado sin nombre 90" x1="196.85" y1="171.94" x2="196.85" y2="58.87" gradientTransform="matrix(1,0,0,1,0,0)" xlink:href="#Degradado_sin_nombre_90"/>
    <linearGradient id="Degradado_sin_nombre_90-4" data-name="Degradado sin nombre 90" x1="1056.44" y1="197.58" x2="1056.44" y2="83.96" gradientTransform="translate(1354.76) rotate(-180) scale(1 -1)" xlink:href="#Degradado_sin_nombre_90"/>
    <linearGradient id="Degradado_sin_nombre_90-5" data-name="Degradado sin nombre 90" x1="1068.29" y1="230.72" x2="1068.29" y2="119.1" gradientTransform="translate(1354.76) rotate(-180) scale(1 -1)" xlink:href="#Degradado_sin_nombre_90"/>
    <linearGradient id="Degradado_sin_nombre_90-6" data-name="Degradado sin nombre 90" x1="182.22" y1="285.36" x2="182.22" y2="117.95" gradientTransform="matrix(1,0,0,1,0,0)" xlink:href="#Degradado_sin_nombre_90"/>
    <linearGradient id="Degradado_sin_nombre_90-7" data-name="Degradado sin nombre 90" x1="183.55" y1="348.97" x2="183.55" y2="185.87" gradientTransform="matrix(1,0,0,1,0,0)" xlink:href="#Degradado_sin_nombre_90"/>
    <linearGradient id="Degradado_sin_nombre_90-8" data-name="Degradado sin nombre 90" x1="1043.25" y1="294.64" x2="1043.25" y2="177.06" gradientTransform="translate(1354.76) rotate(-180) scale(1 -1)" xlink:href="#Degradado_sin_nombre_90"/>
    <linearGradient id="Degradado_sin_nombre_90-9" data-name="Degradado sin nombre 90" x1="255.66" y1="351.8" x2="255.66" y2="262.84" gradientTransform="matrix(1,0,0,1,0,0)" xlink:href="#Degradado_sin_nombre_90"/>
    <linearGradient id="Degradado_sin_nombre_90-10" data-name="Degradado sin nombre 90" x1="308.65" y1="306.44" x2="259.86" y2="306.44" gradientTransform="matrix(1,0,0,1,0,0)" xlink:href="#Degradado_sin_nombre_90"/>
  </defs>
  <g>
    <path class="cls-4" d="M292.18,33.11c4.4,4.54,9.38,10.65,13.73,18.53,9.95,18.01,11.13,35.34,11.02,44.83-3.79-3.89-15.84-15.27-35.32-18.22-16.85-2.55-30,2.61-35.17,4.96,0,0,32.81-17.26,45.73-50.11Z"/>
    <path class="cls-5" d="M242.34,4.07s32.19,18.87,38.13,69.52c0,0-44.29-14.24-74.11-12.01,0,0,29.18-22.88,35.98-57.51Z"/>
    <path class="cls-3" d="M89.95,171.94c1.18-6.45,14.05-70.74,75.96-100.09,44.25-20.98,96.94-16.23,137.84,12.18-3.8.17-8.94.58-14.95,1.61-2.87.49-15.8,2.83-31.85,10.22-9,4.14-21.63,11.09-34.86,22.59-8.06.6-18.55,1.93-30.53,4.96-6.49,1.65-18.28,4.7-32.34,11.64-8.93,4.41-21.23,11.6-34.05,23.1-4.82,1.31-9.99,2.94-35.23,13.79Z"/>
    <path class="cls-2" d="M374.65,197.58c-.19-13.32-2.49-36.06-15.61-59.48-11.91-21.27-27.86-34.21-36.85-41.39-7.25-5.79-13.76-9.9-18.55-12.75-4.8.22-9.85.73-15.1,1.63-30.37,5.19-52.79,20.79-66.54,32.88,1.55-.1,3.66-.22,6.18-.3,3.26-.1,8.17-.25,14.37.08,3.02.16,7.97.54,13.89,1.41,9.06,1.33,15.64,3.28,22.54,5.3,5.46,1.6,12.85,3.79,22.24,7.65,7.95,3.26,17.58,7.28,28.88,14.83,9.93,6.63,16.4,12.82,18.12,14.49,1.23,1.2,6.62,6.49,12.58,14.29,4.69,6.14,8.05,11.62,10.18,15.11,1.54,2.52,2.78,4.68,3.66,6.25Z"/>
    <path class="cls-10" d="M254.4,119.1s-58.91,29.92-76.09,89.24c0,0,108.44-79.6,216.33,22.39-5.84-14.15-21.01-47.28-48.43-71.35-11.31-9.93-22.93-16.77-23.62-17.18-14.5-8.46-27.11-12.42-38.7-15.99-7.7-2.37-17.66-5.02-29.5-7.11Z"/>
    <path class="cls-1" d="M125.17,158.15s-31.4,57.97-5.64,127.21c0,0,19.52-49.72,59.18-76.29,0,0,8.31-50.23,76.35-89.89,0,0-73.53-12.03-129.89,38.96Z"/>
    <path class="cls-6" d="M226.6,185.87c-2.5,5.13-4.91,11.47-7.47,20.21-4.63,15.79-5.61,27.48-5.9,36.23-.42,12.22.03,31.39,4.94,52.17-2.51,4.32-5.1,9.77-7.02,16.31-4.74,16.15-2.81,30.27-1.04,38.19,0,0-48.7-23.94-69.63-101.23,5.14-7.95,12.01-16.91,21.17-25.71,23.52-22.6,49.52-32.02,64.95-36.16Z"/>
    <path class="cls-8" d="M393.01,228.82l17.04,19.99c-10.71,23.47-22.35,34.63-34.72,38.59-38.22,12.23-72.86-35.4-116.66-24.12-19.86,5.12-33.03,20.39-40.61,31.36-.69-2.78-1.55-6.57-2.35-11.1-.92-5.22-2.28-14.32-2.58-26.65-.34-14.26-.79-31.46,5.66-51.89,2.59-8.21,5.57-14.73,7.8-19.13,13.22-4.7,30.91-9.02,51.8-8.79,61.53.67,103.29,40.26,114.6,51.74Z"/>
    <path class="cls-9" d="M208.47,325.27s28.35,30.41,94.38,26.12c.03.01-.16-.1-.54-.35-17.76-11.53-28.96-30.2-28.96-30.2-14.76-23.52-13.33-51.43-12.77-58-1.28.25-3.07.65-5.17,1.29-8.17,2.5-13.66,6.39-16.96,8.77-4.53,3.27-13.62,10.03-20.87,22.48-7.08,12.16-8.7,23.64-9.13,29.89Z"/>
    <path class="cls-11" d="M308.65,270.83s-33.71,36.55-5.8,80.56c-7.38-4.8-25.87-18.24-36.16-43.48-7.37-18.97-7.54-36.01-6.13-45.07.78-.17,1.99-.42,3.27-.63,1.8-.3,5.3-.78,9.65-.72,1.4.02,5.3.12,10.89,1.21,10.17,1.98,19.62,6,24.28,8.13Z"/>
  </g>
  <g>
    <g>
      <path class="cls-12" d="M46.17,396.71v12.13h-21.93v9.64h16.18v11.59h-16.18v21.46h-15.24v-54.83h37.17Z"/>
      <path class="cls-12" d="M71.75,408.92v8.94h17.5v11.59h-17.5v9.88h19.83v12.21h-35.07v-54.83h35.07v12.21h-19.83Z"/>
      <path class="cls-12" d="M130.78,451.54l-10.89-20.22h-1.63v20.22h-15.24v-54.83h24.03c4.41,0,8.14.77,11.2,2.29,3.06,1.53,5.37,3.63,6.92,6.3,1.56,2.67,2.33,5.66,2.33,8.98,0,3.73-1.02,7.01-3.07,9.84-2.05,2.83-5.04,4.83-8.98,6.03l12.37,21.39h-17.03ZM118.26,420.9h7.54c2.07,0,3.63-.49,4.67-1.48,1.04-.98,1.56-2.41,1.56-4.28,0-1.76-.53-3.15-1.59-4.16-1.06-1.01-2.6-1.52-4.63-1.52h-7.54v11.43Z"/>
      <path class="cls-12" d="M192.99,442.6h-19.44l-2.96,8.94h-16.02l19.99-54.83h17.58l19.91,54.83h-16.1l-2.96-8.94ZM189.18,430.93l-5.91-17.73-5.83,17.73h11.74Z"/>
      <path class="cls-12" d="M236.16,439.88h17.03v11.67h-32.27v-54.83h15.24v43.16Z"/>
      <path class="cls-12" d="M323.02,396.71v12.13h-14.62v42.7h-15.24v-42.7h-14.47v-12.13h44.33Z"/>
      <path class="cls-12" d="M347.83,408.92v8.94h17.5v11.59h-17.5v9.88h19.83v12.21h-35.07v-54.83h35.07v12.21h-19.83Z"/>
      <path class="cls-12" d="M380.61,409.59c2.26-4.22,5.46-7.52,9.6-9.88,4.15-2.36,8.92-3.54,14.31-3.54,6.84,0,12.6,1.83,17.27,5.48,4.67,3.66,7.67,8.62,9.02,14.89h-16.41c-.99-2.07-2.35-3.65-4.08-4.74s-3.75-1.63-6.03-1.63c-3.53,0-6.34,1.26-8.44,3.77s-3.15,5.87-3.15,10.07,1.05,7.64,3.15,10.15c2.1,2.51,4.91,3.77,8.44,3.77,2.28,0,4.29-.54,6.03-1.63s3.1-2.67,4.08-4.74h16.41c-1.35,6.27-4.35,11.24-9.02,14.89-4.67,3.65-10.42,5.48-17.27,5.48-5.39,0-10.16-1.18-14.31-3.54-4.15-2.36-7.35-5.65-9.6-9.88-2.26-4.22-3.38-9.06-3.38-14.5s1.13-10.2,3.38-14.43Z"/>
      <path class="cls-12" d="M491.01,396.71v54.83h-15.24v-22.01h-18.59v22.01h-15.24v-54.83h15.24v20.61h18.59v-20.61h15.24Z"/>
    </g>
    <g>
      <path class="cls-7" d="M47.39,477.71v18.05h-2.36v-18.05h2.36Z"/>
      <path class="cls-7" d="M70.74,477.84v17.92h-2.36v-13.36l-5.96,13.36h-1.66l-5.98-13.38v13.38h-2.36v-17.92h2.54l6.63,14.81,6.63-14.81h2.51Z"/>
      <path class="cls-7" d="M86.43,491.74h-7.87l-1.45,4.01h-2.49l6.52-17.94h2.72l6.5,17.94h-2.49l-1.45-4.01ZM85.76,489.83l-3.26-9.11-3.26,9.11h6.52Z"/>
      <path class="cls-7" d="M107.92,482.94c-.5-1.05-1.22-1.87-2.17-2.45-.95-.58-2.05-.87-3.31-.87s-2.4.29-3.4.87c-1.01.58-1.8,1.41-2.38,2.49-.58,1.08-.87,2.33-.87,3.74s.29,2.66.87,3.73c.58,1.07,1.37,1.89,2.38,2.47,1.01.58,2.14.87,3.4.87,1.76,0,3.21-.53,4.35-1.58,1.14-1.05,1.8-2.48,1.99-4.27h-7.2v-1.92h9.71v1.81c-.14,1.49-.6,2.84-1.4,4.08s-1.84,2.21-3.13,2.93c-1.29.72-2.74,1.07-4.32,1.07-1.67,0-3.2-.39-4.58-1.18-1.38-.79-2.47-1.88-3.28-3.28s-1.2-2.98-1.2-4.74.4-3.34,1.2-4.75c.8-1.41,1.89-2.5,3.28-3.29,1.38-.79,2.91-1.18,4.58-1.18,1.92,0,3.61.47,5.09,1.42s2.55,2.29,3.22,4.01h-2.82Z"/>
      <path class="cls-7" d="M117.78,477.71v18.05h-2.36v-18.05h2.36Z"/>
      <path class="cls-7" d="M137.02,495.75h-2.36l-9.47-14.37v14.37h-2.36v-18.07h2.36l9.47,14.34v-14.34h2.36v18.07Z"/>
      <path class="cls-7" d="M152.73,491.74h-7.87l-1.45,4.01h-2.49l6.52-17.94h2.72l6.5,17.94h-2.49l-1.45-4.01ZM152.06,489.83l-3.26-9.11-3.26,9.11h6.52Z"/>
      <path class="cls-7" d="M169.57,489.37c-.61-.61-.92-1.36-.92-2.24s.31-1.65.92-2.27,1.36-.92,2.24-.92,1.66.31,2.28.92c.62.61.93,1.37.93,2.27s-.31,1.63-.93,2.24c-.62.61-1.38.92-2.28.92s-1.63-.31-2.24-.92Z"/>
      <path class="cls-7" d="M188.46,481.97c.79-1.41,1.88-2.51,3.25-3.3s2.89-1.19,4.57-1.19c1.97,0,3.68.48,5.15,1.42,1.47.95,2.54,2.3,3.21,4.04h-2.82c-.5-1.09-1.22-1.92-2.16-2.51s-2.07-.88-3.38-.88-2.39.29-3.39.88c-1,.59-1.79,1.42-2.36,2.5-.57,1.08-.85,2.34-.85,3.79s.29,2.69.85,3.77c.57,1.08,1.36,1.91,2.36,2.5,1,.59,2.13.88,3.39.88s2.44-.29,3.38-.87,1.66-1.41,2.16-2.5h2.82c-.67,1.73-1.74,3.06-3.21,4-1.47.94-3.18,1.41-5.15,1.41-1.67,0-3.2-.39-4.57-1.18s-2.45-1.88-3.25-3.28-1.19-2.98-1.19-4.74.4-3.34,1.19-4.75Z"/>
      <path class="cls-7" d="M218.67,495.75l-4.3-7.38h-2.85v7.38h-2.36v-18.05h5.83c1.36,0,2.52.23,3.46.7.94.47,1.64,1.1,2.11,1.89.47.8.7,1.7.7,2.72,0,1.24-.36,2.34-1.07,3.29s-1.79,1.58-3.22,1.89l4.53,7.56h-2.82ZM211.53,486.49h3.47c1.28,0,2.24-.31,2.87-.94.64-.63.96-1.47.96-2.52s-.31-1.9-.95-2.49c-.63-.59-1.59-.88-2.89-.88h-3.47v6.84Z"/>
      <path class="cls-7" d="M228.3,479.62v6.03h6.58v1.94h-6.58v6.21h7.35v1.94h-9.71v-18.07h9.71v1.94h-7.35Z"/>
      <path class="cls-7" d="M250.93,491.74h-7.87l-1.45,4.01h-2.49l6.52-17.94h2.72l6.5,17.94h-2.49l-1.45-4.01ZM250.26,489.83l-3.26-9.11-3.26,9.11h6.52Z"/>
      <path class="cls-7" d="M267.77,489.37c-.61-.61-.92-1.36-.92-2.24s.31-1.65.92-2.27,1.36-.92,2.24-.92,1.66.31,2.28.92c.62.61.93,1.37.93,2.27s-.31,1.63-.93,2.24c-.62.61-1.38.92-2.28.92s-1.63-.31-2.24-.92Z"/>
      <path class="cls-7" d="M288.7,479.62v6.03h6.58v1.94h-6.58v6.21h7.35v1.94h-9.71v-18.07h9.71v1.94h-7.35Z"/>
      <path class="cls-7" d="M315.58,477.71l-6.81,18.05h-2.72l-6.81-18.05h2.51l5.67,15.56,5.67-15.56h2.49Z"/>
      <path class="cls-7" d="M322.8,494.76c-1.38-.79-2.47-1.88-3.28-3.29s-1.2-2.99-1.2-4.75.4-3.34,1.2-4.75c.8-1.41,1.89-2.5,3.28-3.29,1.38-.79,2.91-1.18,4.58-1.18s3.23.39,4.61,1.18c1.38.79,2.47,1.88,3.26,3.28.79,1.4,1.19,2.99,1.19,4.76s-.4,3.37-1.19,4.76c-.8,1.4-1.88,2.49-3.26,3.28-1.38.79-2.92,1.18-4.61,1.18s-3.2-.39-4.58-1.18ZM330.79,493.01c1.01-.59,1.8-1.42,2.38-2.51.58-1.09.87-2.35.87-3.78s-.29-2.71-.87-3.79c-.58-1.08-1.37-1.91-2.37-2.5s-2.14-.88-3.42-.88-2.42.29-3.42.88-1.79,1.42-2.37,2.5c-.58,1.08-.87,2.34-.87,3.79s.29,2.69.87,3.78c.58,1.09,1.37,1.92,2.38,2.51,1.01.59,2.14.88,3.4.88s2.39-.29,3.4-.88Z"/>
      <path class="cls-7" d="M342.94,493.84h6.32v1.92h-8.67v-18.05h2.36v16.13Z"/>
      <path class="cls-7" d="M355.11,477.71v11.42c0,1.61.39,2.8,1.18,3.57.79.78,1.88,1.17,3.27,1.17s2.46-.39,3.25-1.17c.79-.78,1.18-1.97,1.18-3.57v-11.42h2.36v11.39c0,1.5-.3,2.77-.91,3.79s-1.42,1.79-2.45,2.29c-1.03.5-2.18.75-3.46.75s-2.43-.25-3.46-.75c-1.03-.5-1.84-1.26-2.43-2.29s-.89-2.29-.89-3.79v-11.39h2.36Z"/>
      <path class="cls-7" d="M371.63,481.97c.79-1.41,1.88-2.51,3.25-3.3s2.89-1.19,4.57-1.19c1.97,0,3.68.48,5.15,1.42,1.47.95,2.54,2.3,3.21,4.04h-2.82c-.5-1.09-1.22-1.92-2.16-2.51s-2.07-.88-3.38-.88-2.39.29-3.39.88c-1,.59-1.79,1.42-2.36,2.5-.57,1.08-.85,2.34-.85,3.79s.29,2.69.85,3.77c.57,1.08,1.36,1.91,2.36,2.5,1,.59,2.13.88,3.39.88s2.44-.29,3.38-.87,1.66-1.41,2.16-2.5h2.82c-.67,1.73-1.74,3.06-3.21,4-1.47.94-3.18,1.41-5.15,1.41-1.67,0-3.2-.39-4.57-1.18s-2.45-1.88-3.25-3.28-1.19-2.98-1.19-4.74.4-3.34,1.19-4.75Z"/>
      <path class="cls-7" d="M394.7,477.71v18.05h-2.36v-18.05h2.36Z"/>
      <path class="cls-7" d="M403.34,494.76c-1.38-.79-2.47-1.88-3.28-3.29s-1.2-2.99-1.2-4.75.4-3.34,1.2-4.75c.8-1.41,1.89-2.5,3.28-3.29,1.38-.79,2.91-1.18,4.58-1.18s3.23.39,4.61,1.18c1.38.79,2.47,1.88,3.26,3.28.79,1.4,1.19,2.99,1.19,4.76s-.4,3.37-1.19,4.76c-.8,1.4-1.88,2.49-3.26,3.28-1.38.79-2.92,1.18-4.61,1.18s-3.2-.39-4.58-1.18ZM411.33,493.01c1.01-.59,1.8-1.42,2.38-2.51.58-1.09.87-2.35.87-3.78s-.29-2.71-.87-3.79c-.58-1.08-1.37-1.91-2.37-2.5s-2.14-.88-3.42-.88-2.42.29-3.42.88-1.79,1.42-2.37,2.5c-.58,1.08-.87,2.34-.87,3.79s.29,2.69.87,3.78c.58,1.09,1.37,1.92,2.38,2.51,1.01.59,2.14.88,3.4.88s2.39-.29,3.4-.88Z"/>
      <path class="cls-7" d="M435.32,495.75h-2.36l-9.47-14.37v14.37h-2.36v-18.07h2.36l9.47,14.34v-14.34h2.36v18.07Z"/>
      <path class="cls-7" d="M451.03,491.74h-7.87l-1.45,4.01h-2.49l6.52-17.94h2.72l6.5,17.94h-2.49l-1.45-4.01ZM450.36,489.83l-3.26-9.11-3.26,9.11h6.52Z"/>
    </g>
  </g>
</svg>